<?xml version="1.0" encoding="UTF-8" standalone="no"?>
<svg
   xmlns:dc="http://purl.org/dc/elements/1.1/"
   xmlns:cc="http://creativecommons.org/ns#"
   xmlns:rdf="http://www.w3.org/1999/02/22-rdf-syntax-ns#"
   xmlns:svg="http://www.w3.org/2000/svg"
   xmlns="http://www.w3.org/2000/svg"
   xmlns:sodipodi="http://sodipodi.sourceforge.net/DTD/sodipodi-0.dtd"
   xmlns:inkscape="http://www.inkscape.org/namespaces/inkscape"
   id="svg863"
   version="1.1"
   viewBox="0 0 293.31683 78.677681"
   height="78.677681mm"
   width="293.31683mm"
   sodipodi:docname="icon-simple.svg"
   inkscape:version="0.92.3 (2405546, 2018-03-11)">
  <sodipodi:namedview
     pagecolor="#ffffff"
     bordercolor="#666666"
     borderopacity="1"
     objecttolerance="10"
     gridtolerance="10"
     guidetolerance="10"
     inkscape:pageopacity="0"
     inkscape:pageshadow="2"
     inkscape:window-width="1920"
     inkscape:window-height="1051"
     id="namedview902"
     showgrid="false"
     fit-margin-top="0"
     fit-margin-left="0"
     fit-margin-right="0"
     fit-margin-bottom="0"
     inkscape:zoom="0.56118743"
     inkscape:cx="190.6164"
     inkscape:cy="161.89543"
     inkscape:window-x="0"
     inkscape:window-y="0"
     inkscape:window-maximized="1"
     inkscape:current-layer="svg863" />
  <defs
     id="defs857" />
  <metadata
     id="metadata860">
    <rdf:RDF>
      <cc:Work
         rdf:about="">
        <dc:format>image/svg+xml</dc:format>
        <dc:type
           rdf:resource="http://purl.org/dc/dcmitype/StillImage" />
        <dc:title />
      </cc:Work>
    </rdf:RDF>
  </metadata>
  <g
     transform="translate(353.29826,93.10074)"
     id="layer1">
    <g
       transform="translate(-443.44254,-445.5211)"
       id="g943">
      <path
         style="fill:#5fd3bc;fill-opacity:1;stroke:none;stroke-width:0.2;stroke-linecap:butt;stroke-linejoin:bevel;stroke-miterlimit:4;stroke-dasharray:none;stroke-opacity:1;paint-order:markers stroke fill"
         d="m 90.435748,393.48934 c -0.63887,-1.83396 -0.0283,-5.66242 -0.0283,-5.66242 l 4.45717,-35.40656 34.405722,34.37024 -5.22034,41.18709 -28.855092,-28.85509 -3.24064,-3.24064 c 0,0 -0.93479,-0.71684 -1.51855,-2.39262 z"
         id="rect815-8-7-0-5"
         inkscape:connector-curvature="0" />
      <path
         style="fill:#008080;fill-opacity:1;stroke:none;stroke-width:0.2;stroke-linecap:butt;stroke-linejoin:bevel;stroke-miterlimit:4;stroke-dasharray:none;stroke-opacity:1;paint-order:markers stroke fill"
         d="m 91.954298,395.88196 c 3.07636,2.11512 5.12196,1.52448 6.7798,-0.084 l 37.707892,-37.7079 34.37024,34.37025 -35.99607,35.99607 c 0,0 -2.17772,2.55132 -5.02564,2.63968 -2.68421,0.0833 -5.20802,-2.4913 -5.20802,-2.4913 L 95.782428,399.80469 Z"
         id="rect815-8-7-9-2-3"
         inkscape:connector-curvature="0" />
    </g>
  </g>
  <g
     aria-label="OPENSchool"
     transform="matrix(0.92360818,0,0,0.92360818,-654.53788,-1324.5758)"
     style="font-style:normal;font-weight:normal;font-size:40px;line-height:1.25;font-family:sans-serif;letter-spacing:0px;word-spacing:0px;fill:#1a1a1a;fill-opacity:1;stroke:none"
     id="flowRoot966">
    <path
       d="m 826.05664,1434.8154 q 5.15625,0 8.92578,3.9258 3.78906,3.9062 3.78906,9.7656 0,6.0351 -3.80859,10.0195 -3.80859,3.9844 -9.21875,3.9844 -5.46875,0 -9.19922,-3.8867 -3.71094,-3.8867 -3.71094,-10.0586 0,-6.3086 4.29688,-10.293 3.73047,-3.457 8.92578,-3.457 z m -0.37109,1.4258 q -3.55469,0 -5.70313,2.6367 -2.67578,3.2812 -2.67578,9.6094 0,6.4843 2.77344,9.9804 2.1289,2.6563 5.625,2.6563 3.73047,0 6.15234,-2.9102 2.44141,-2.9101 2.44141,-9.1797 0,-6.7968 -2.67578,-10.1367 -2.14844,-2.6562 -5.9375,-2.6562 z"
       style="font-style:normal;font-variant:normal;font-weight:normal;font-stretch:normal;font-family:'Times New Roman';-inkscape-font-specification:'Times New Roman, ';fill:#1a1a1a"
       id="path2065" />
    <path
       d="m 848.53711,1449.5029 v 7.7148 q 0,2.5 0.54687,3.1055 0.74219,0.8594 2.2461,0.8594 h 1.01562 v 0.7226 h -11.34765 v -0.7226 h 0.99609 q 1.67969,0 2.40234,-1.0938 0.39063,-0.6055 0.39063,-2.8711 v -17.1094 q 0,-2.5 -0.52734,-3.1054 -0.76172,-0.8594 -2.26563,-0.8594 h -0.99609 v -0.7227 h 9.70703 q 3.55469,0 5.60547,0.7422 2.05078,0.7227 3.45703,2.461 1.40625,1.7383 1.40625,4.1211 0,3.2422 -2.14844,5.2734 -2.12891,2.0313 -6.03516,2.0313 -0.95703,0 -2.07031,-0.1368 -1.11328,-0.1367 -2.38281,-0.4101 z m 0,-1.1133 q 1.03516,0.1953 1.83594,0.293 0.80078,0.098 1.36718,0.098 2.03125,0 3.4961,-1.5625 1.48437,-1.582 1.48437,-4.082 0,-1.7188 -0.70312,-3.1836 -0.70313,-1.4844 -1.99219,-2.207 -1.28906,-0.7422 -2.92969,-0.7422 -0.99609,0 -2.55859,0.3711 z"
       style="font-style:normal;font-variant:normal;font-weight:normal;font-stretch:normal;font-family:'Times New Roman';-inkscape-font-specification:'Times New Roman, ';fill:#1a1a1a"
       id="path2067" />
    <path
       d="m 870.95898,1436.8662 v 10.4687 h 5.82032 q 2.26562,0 3.02734,-0.6836 1.01563,-0.8984 1.13281,-3.164 h 0.72266 v 9.2187 h -0.72266 q -0.27343,-1.9336 -0.54687,-2.4805 -0.35156,-0.6836 -1.15235,-1.0742 -0.80078,-0.3906 -2.46093,-0.3906 h -5.82032 v 8.7305 q 0,1.7578 0.15625,2.1484 0.15625,0.3711 0.54688,0.6055 0.39062,0.2148 1.48437,0.2148 h 4.49219 q 2.2461,0 3.26172,-0.3125 1.01563,-0.3125 1.95313,-1.2305 1.21093,-1.2109 2.48046,-3.6523 h 0.78125 l -2.28515,6.6406 h -20.41016 v -0.7226 h 0.9375 q 0.9375,0 1.77735,-0.4493 0.625,-0.3125 0.83984,-0.9375 0.23437,-0.625 0.23437,-2.5585 v -17.2071 q 0,-2.5195 -0.50781,-3.1054 -0.70312,-0.7813 -2.34375,-0.7813 h -0.9375 v -0.7227 h 20.41016 l 0.29297,5.8008 h -0.76172 q -0.41016,-2.0898 -0.91797,-2.8711 -0.48828,-0.7812 -1.46484,-1.1914 -0.78125,-0.2929 -2.75391,-0.2929 z"
       style="font-style:normal;font-variant:normal;font-weight:normal;font-stretch:normal;font-family:'Times New Roman';-inkscape-font-specification:'Times New Roman, ';fill:#1a1a1a"
       id="path2069" />
    <path
       d="m 886.52539,1435.4208 h 7.1875 l 16.19141,19.8633 v -15.2734 q 0,-2.4414 -0.54688,-3.0469 -0.72265,-0.8203 -2.28515,-0.8203 h -0.91797 v -0.7227 h 9.21875 v 0.7227 h -0.9375 q -1.67969,0 -2.38282,1.0156 -0.42968,0.625 -0.42968,2.8516 v 22.3242 h -0.70313 l -17.46094,-21.3281 v 16.3086 q 0,2.4414 0.52735,3.0469 0.74219,0.8203 2.28515,0.8203 h 0.9375 v 0.7226 h -9.21875 v -0.7226 h 0.91797 q 1.69922,0 2.40235,-1.0157 0.42968,-0.625 0.42968,-2.8515 v -18.418 q -1.15234,-1.3476 -1.75781,-1.7773 -0.58594,-0.4297 -1.73828,-0.8008 -0.56641,-0.1758 -1.71875,-0.1758 z"
       style="font-style:normal;font-variant:normal;font-weight:normal;font-stretch:normal;font-family:'Times New Roman';-inkscape-font-specification:'Times New Roman, ';fill:#1a1a1a"
       id="path2071" />
    <path
       d="m 934.29883,1434.8154 v 9.1601 h -0.72266 q -0.35156,-2.6367 -1.26953,-4.1992 -0.89844,-1.5625 -2.57812,-2.4805 -1.67969,-0.9179 -3.47657,-0.9179 -2.03125,0 -3.35937,1.25 -1.32813,1.2304 -1.32813,2.8125 0,1.2109 0.83985,2.207 1.21093,1.4649 5.76172,3.9063 3.71093,1.9921 5.05859,3.0664 1.36719,1.0547 2.08984,2.5 0.74219,1.4453 0.74219,3.0273 0,3.0078 -2.34375,5.1953 -2.32422,2.168 -5.99609,2.168 -1.15235,0 -2.16797,-0.1758 -0.60547,-0.098 -2.51953,-0.7031 -1.89453,-0.625 -2.40235,-0.625 -0.48828,0 -0.78125,0.293 -0.27343,0.2929 -0.41015,1.2109 h -0.72266 v -9.082 h 0.72266 q 0.50781,2.8515 1.36718,4.2773 0.85938,1.4063 2.61719,2.3438 1.77735,0.9375 3.88672,0.9375 2.44141,0 3.84766,-1.2891 1.42578,-1.2891 1.42578,-3.0469 0,-0.9765 -0.54688,-1.9726 -0.52734,-0.9961 -1.66015,-1.8555 -0.76172,-0.5859 -4.16016,-2.4805 -3.39844,-1.914 -4.84375,-3.0469 -1.42578,-1.1328 -2.16797,-2.5 -0.74219,-1.3671 -0.74219,-3.0078 0,-2.8515 2.1875,-4.9023 2.1875,-2.0703 5.56641,-2.0703 2.10938,0 4.47266,1.0351 1.09375,0.4883 1.54297,0.4883 0.50781,0 0.82031,-0.293 0.33203,-0.3125 0.52734,-1.2304 z"
       style="font-style:normal;font-variant:normal;font-weight:normal;font-stretch:normal;font-family:'Times New Roman';-inkscape-font-specification:'Times New Roman, ';fill:#1a1a1a"
       id="path2073" />
    <path
       d="m 954.66992,1455.1083 q -0.72265,3.5352 -2.83203,5.4493 -2.10937,1.8945 -4.66797,1.8945 -3.04687,0 -5.3125,-2.5586 -2.26562,-2.5586 -2.26562,-6.9141 0,-4.2187 2.5,-6.8554 2.51953,-2.6367 6.03515,-2.6367 2.63672,0 4.33594,1.4062 1.69922,1.3867 1.69922,2.8906 0,0.7422 -0.48828,1.211 -0.46875,0.4492 -1.32813,0.4492 -1.15234,0 -1.73828,-0.7422 -0.33203,-0.4102 -0.44922,-1.5625 -0.0976,-1.1523 -0.78125,-1.7578 -0.68359,-0.586 -1.89453,-0.586 -1.95312,0 -3.14453,1.4454 -1.58203,1.914 -1.58203,5.0586 0,3.2031 1.5625,5.664 1.58203,2.4414 4.25781,2.4414 1.91406,0 3.4375,-1.3086 1.07422,-0.8984 2.08985,-3.2617 z"
       style="font-style:normal;font-variant:normal;font-weight:normal;font-stretch:normal;font-family:'Times New Roman';-inkscape-font-specification:'Times New Roman, ';fill:#1a1a1a"
       id="path2075" />
    <path
       d="m 962.46289,1434.1318 v 13.0859 q 2.16797,-2.3828 3.4375,-3.0469 1.26953,-0.6835 2.53906,-0.6835 1.52344,0 2.61719,0.8398 1.09375,0.8398 1.62109,2.6367 0.3711,1.25 0.3711,4.5703 v 6.3282 q 0,1.6992 0.27344,2.3242 0.19531,0.4687 0.66406,0.7422 0.46875,0.2734 1.71875,0.2734 v 0.7031 h -8.78906 v -0.7031 h 0.41015 q 1.25,0 1.73828,-0.3711 0.48828,-0.3906 0.6836,-1.1328 0.0586,-0.3125 0.0586,-1.8359 v -6.3282 q 0,-2.9297 -0.3125,-3.8476 -0.29297,-0.918 -0.95703,-1.3672 -0.66406,-0.4688 -1.60156,-0.4688 -0.95703,0 -1.99219,0.5078 -1.03516,0.5079 -2.48047,2.0508 v 9.4532 q 0,1.8359 0.19531,2.2851 0.21485,0.4492 0.76172,0.7617 0.56641,0.293 1.9336,0.293 v 0.7031 h -8.86719 v -0.7031 q 1.1914,0 1.875,-0.3711 0.39062,-0.1953 0.625,-0.7422 0.23437,-0.5469 0.23437,-2.2265 v -16.1915 q 0,-3.0664 -0.15625,-3.7695 -0.13672,-0.7031 -0.44922,-0.957 -0.29296,-0.2539 -0.80078,-0.2539 -0.41015,0 -1.32812,0.3125 l -0.27344,-0.6836 5.35156,-2.1875 z"
       style="font-style:normal;font-variant:normal;font-weight:normal;font-stretch:normal;font-family:'Times New Roman';-inkscape-font-specification:'Times New Roman, ';fill:#1a1a1a"
       id="path2077" />
    <path
       d="m 985.95898,1443.4873 q 4.0625,0 6.52344,3.0859 2.08985,2.6367 2.08985,6.0547 0,2.4023 -1.15235,4.8633 -1.15234,2.4609 -3.18359,3.7109 -2.01172,1.25 -4.49219,1.25 -4.04297,0 -6.42578,-3.2227 -2.01172,-2.7148 -2.01172,-6.0937 0,-2.4609 1.21094,-4.8828 1.23047,-2.4414 3.22265,-3.5938 1.99219,-1.1718 4.21875,-1.1718 z m -0.60546,1.2695 q -1.03516,0 -2.08985,0.625 -1.03515,0.6055 -1.67969,2.1484 -0.64453,1.543 -0.64453,3.9649 0,3.9062 1.54297,6.7382 1.5625,2.8321 4.10156,2.8321 1.89454,0 3.125,-1.5625 1.23047,-1.5625 1.23047,-5.3711 0,-4.7656 -2.05078,-7.5 -1.38672,-1.875 -3.53515,-1.875 z"
       style="font-style:normal;font-variant:normal;font-weight:normal;font-stretch:normal;font-family:'Times New Roman';-inkscape-font-specification:'Times New Roman, ';fill:#1a1a1a"
       id="path2079" />
    <path
       d="m 1005.959,1443.4873 q 4.0625,0 6.5234,3.0859 2.0899,2.6367 2.0899,6.0547 0,2.4023 -1.1524,4.8633 -1.1523,2.4609 -3.1836,3.7109 -2.0117,1.25 -4.4922,1.25 -4.0429,0 -6.42574,-3.2227 -2.01172,-2.7148 -2.01172,-6.0937 0,-2.4609 1.21094,-4.8828 1.23047,-2.4414 3.22262,-3.5938 1.9922,-1.1718 4.2188,-1.1718 z m -0.6055,1.2695 q -1.0351,0 -2.0898,0.625 -1.0352,0.6055 -1.6797,2.1484 -0.6445,1.543 -0.6445,3.9649 0,3.9062 1.5429,6.7382 1.5625,2.8321 4.1016,2.8321 1.8945,0 3.125,-1.5625 1.2305,-1.5625 1.2305,-5.3711 0,-4.7656 -2.0508,-7.5 -1.3867,-1.875 -3.5352,-1.875 z"
       style="font-style:normal;font-variant:normal;font-weight:normal;font-stretch:normal;font-family:'Times New Roman';-inkscape-font-specification:'Times New Roman, ';fill:#1a1a1a"
       id="path2081" />
    <path
       d="m 1023.3613,1434.1318 v 23.7305 q 0,1.6796 0.2344,2.2265 0.2539,0.5469 0.7617,0.8399 0.5078,0.2734 1.8946,0.2734 v 0.7031 h -8.7696 v -0.7031 q 1.2305,0 1.6797,-0.2539 0.4492,-0.2539 0.7031,-0.8399 0.2539,-0.5859 0.2539,-2.246 v -16.25 q 0,-3.0274 -0.1367,-3.711 -0.1367,-0.7031 -0.4492,-0.957 -0.293,-0.2539 -0.7617,-0.2539 -0.5078,0 -1.2891,0.3125 l -0.332,-0.6836 5.332,-2.1875 z"
       style="font-style:normal;font-variant:normal;font-weight:normal;font-stretch:normal;font-family:'Times New Roman';-inkscape-font-specification:'Times New Roman, ';fill:#1a1a1a"
       id="path2083" />
  </g>
  <g
     aria-label="Solutions"
     transform="matrix(1.3390297,0,0,1.3390297,-994.9405,-1879.6676)"
     style="font-style:normal;font-weight:normal;font-size:40px;line-height:1.25;font-family:sans-serif;letter-spacing:0px;word-spacing:0px;fill:#1a1a1a;fill-opacity:1;stroke:none"
     id="flowRoot966-2">
    <path
       d="m 829.76758,1434.8154 v 9.1601 h -0.72266 q -0.35156,-2.6367 -1.26953,-4.1992 -0.89844,-1.5625 -2.57812,-2.4805 -1.67969,-0.9179 -3.47657,-0.9179 -2.03125,0 -3.35937,1.25 -1.32813,1.2304 -1.32813,2.8125 0,1.2109 0.83985,2.207 1.21093,1.4649 5.76172,3.9063 3.71093,1.9921 5.05859,3.0664 1.36719,1.0547 2.08984,2.5 0.74219,1.4453 0.74219,3.0273 0,3.0078 -2.34375,5.1953 -2.32422,2.168 -5.99609,2.168 -1.15235,0 -2.16797,-0.1758 -0.60547,-0.098 -2.51953,-0.7031 -1.89453,-0.625 -2.40235,-0.625 -0.48828,0 -0.78125,0.293 -0.27343,0.2929 -0.41015,1.2109 h -0.72266 v -9.082 h 0.72266 q 0.50781,2.8515 1.36718,4.2773 0.85938,1.4063 2.61719,2.3438 1.77735,0.9375 3.88672,0.9375 2.44141,0 3.84766,-1.2891 1.42578,-1.2891 1.42578,-3.0469 0,-0.9765 -0.54688,-1.9726 -0.52734,-0.9961 -1.66015,-1.8555 -0.76172,-0.5859 -4.16016,-2.4805 -3.39844,-1.914 -4.84375,-3.0469 -1.42578,-1.1328 -2.16797,-2.5 -0.74219,-1.3671 -0.74219,-3.0078 0,-2.8515 2.1875,-4.9023 2.1875,-2.0703 5.56641,-2.0703 2.10938,0 4.47266,1.0351 1.09375,0.4883 1.54297,0.4883 0.50781,0 0.82031,-0.293 0.33203,-0.3125 0.52734,-1.2304 z"
       style="font-style:normal;font-variant:normal;font-weight:normal;font-stretch:normal;font-family:'Times New Roman';-inkscape-font-specification:'Times New Roman, ';fill:#1a1a1a"
       id="path2086" />
    <path
       d="m 843.69336,1443.4873 q 4.0625,0 6.52344,3.0859 2.08984,2.6367 2.08984,6.0547 0,2.4023 -1.15234,4.8633 -1.15235,2.4609 -3.1836,3.7109 -2.01172,1.25 -4.49218,1.25 -4.04297,0 -6.42579,-3.2227 -2.01171,-2.7148 -2.01171,-6.0937 0,-2.4609 1.21093,-4.8828 1.23047,-2.4414 3.22266,-3.5938 1.99219,-1.1718 4.21875,-1.1718 z m -0.60547,1.2695 q -1.03516,0 -2.08984,0.625 -1.03516,0.6055 -1.67969,2.1484 -0.64453,1.543 -0.64453,3.9649 0,3.9062 1.54297,6.7382 1.5625,2.8321 4.10156,2.8321 1.89453,0 3.125,-1.5625 1.23047,-1.5625 1.23047,-5.3711 0,-4.7656 -2.05078,-7.5 -1.38672,-1.875 -3.53516,-1.875 z"
       style="font-style:normal;font-variant:normal;font-weight:normal;font-stretch:normal;font-family:'Times New Roman';-inkscape-font-specification:'Times New Roman, ';fill:#1a1a1a"
       id="path2088" />
    <path
       d="m 861.0957,1434.1318 v 23.7305 q 0,1.6796 0.23438,2.2265 0.2539,0.5469 0.76172,0.8399 0.50781,0.2734 1.89453,0.2734 v 0.7031 h -8.76953 v -0.7031 q 1.23047,0 1.67968,-0.2539 0.44922,-0.2539 0.70313,-0.8399 0.25391,-0.5859 0.25391,-2.246 v -16.25 q 0,-3.0274 -0.13672,-3.711 -0.13672,-0.7031 -0.44922,-0.957 -0.29297,-0.2539 -0.76172,-0.2539 -0.50781,0 -1.28906,0.3125 l -0.33203,-0.6836 5.33203,-2.1875 z"
       style="font-style:normal;font-variant:normal;font-weight:normal;font-stretch:normal;font-family:'Times New Roman';-inkscape-font-specification:'Times New Roman, ';fill:#1a1a1a"
       id="path2090" />
    <path
       d="m 881.7207,1444.0146 v 10.8398 q 0,3.1055 0.13672,3.8086 0.15625,0.6836 0.46875,0.9571 0.33203,0.2734 0.76172,0.2734 0.60547,0 1.36719,-0.332 l 0.27344,0.6836 -5.35157,2.207 h -0.8789 v -3.7891 q -2.30469,2.5 -3.51563,3.1446 -1.21094,0.6445 -2.55859,0.6445 -1.50391,0 -2.61719,-0.8594 -1.09375,-0.8789 -1.52344,-2.2461 -0.42968,-1.3672 -0.42968,-3.8672 v -7.9882 q 0,-1.2696 -0.27344,-1.7579 -0.27344,-0.4882 -0.82031,-0.7421 -0.52735,-0.2735 -1.9336,-0.2539 v -0.7227 h 6.26953 v 11.9727 q 0,2.5 0.85938,3.2812 0.8789,0.7813 2.10937,0.7813 0.83985,0 1.89453,-0.5274 1.07422,-0.5273 2.53907,-2.0117 v -10.1367 q 0,-1.5235 -0.56641,-2.0508 -0.54687,-0.5469 -2.30469,-0.5859 v -0.7227 z"
       style="font-style:normal;font-variant:normal;font-weight:normal;font-stretch:normal;font-family:'Times New Roman';-inkscape-font-specification:'Times New Roman, ';fill:#1a1a1a"
       id="path2092" />
    <path
       d="m 891.23242,1438.1357 v 5.8789 h 4.17969 v 1.3672 h -4.17969 v 11.6015 q 0,1.7383 0.48828,2.3438 0.50782,0.6055 1.28907,0.6055 0.64453,0 1.25,-0.3907 0.60546,-0.4101 0.9375,-1.1914 h 0.76171 q -0.68359,1.9141 -1.93359,2.8907 -1.25,0.957 -2.57812,0.957 -0.89844,0 -1.75782,-0.4883 -0.85937,-0.5078 -1.26953,-1.4258 -0.41015,-0.9375 -0.41015,-2.8711 v -12.0312 h -2.83204 v -0.6445 q 1.07422,-0.4297 2.1875,-1.4454 1.13282,-1.0351 2.01172,-2.4414 0.44922,-0.7422 1.25,-2.7148 z"
       style="font-style:normal;font-variant:normal;font-weight:normal;font-stretch:normal;font-family:'Times New Roman';-inkscape-font-specification:'Times New Roman, ';fill:#1a1a1a"
       id="path2094" />
    <path
       d="m 901.68164,1434.1318 q 0.82031,0 1.38672,0.5859 0.58594,0.5664 0.58594,1.3867 0,0.8204 -0.58594,1.4063 -0.56641,0.5859 -1.38672,0.5859 -0.82031,0 -1.40625,-0.5859 -0.58594,-0.5859 -0.58594,-1.4063 0,-0.8203 0.56641,-1.3867 0.58594,-0.5859 1.42578,-0.5859 z m 1.62109,9.3555 v 14.375 q 0,1.6796 0.23438,2.246 0.25391,0.5469 0.72266,0.8204 0.48828,0.2734 1.75781,0.2734 v 0.7031 h -8.69141 v -0.7031 q 1.3086,0 1.75781,-0.2539 0.44922,-0.2539 0.70313,-0.8399 0.27344,-0.5859 0.27344,-2.246 v -6.8946 q 0,-2.9101 -0.17578,-3.7695 -0.13672,-0.625 -0.42969,-0.8594 -0.29297,-0.2539 -0.80078,-0.2539 -0.54688,0 -1.32813,0.293 l -0.27344,-0.7031 5.39063,-2.1875 z"
       style="font-style:normal;font-variant:normal;font-weight:normal;font-stretch:normal;font-family:'Times New Roman';-inkscape-font-specification:'Times New Roman, ';fill:#1a1a1a"
       id="path2096" />
    <path
       d="m 916.97461,1443.4873 q 4.0625,0 6.52344,3.0859 2.08984,2.6367 2.08984,6.0547 0,2.4023 -1.15234,4.8633 -1.15235,2.4609 -3.1836,3.7109 -2.01172,1.25 -4.49218,1.25 -4.04297,0 -6.42579,-3.2227 -2.01171,-2.7148 -2.01171,-6.0937 0,-2.4609 1.21093,-4.8828 1.23047,-2.4414 3.22266,-3.5938 1.99219,-1.1718 4.21875,-1.1718 z m -0.60547,1.2695 q -1.03516,0 -2.08984,0.625 -1.03516,0.6055 -1.67969,2.1484 -0.64453,1.543 -0.64453,3.9649 0,3.9062 1.54297,6.7382 1.5625,2.8321 4.10156,2.8321 1.89453,0 3.125,-1.5625 1.23047,-1.5625 1.23047,-5.3711 0,-4.7656 -2.05078,-7.5 -1.38672,-1.875 -3.53516,-1.875 z"
       style="font-style:normal;font-variant:normal;font-weight:normal;font-stretch:normal;font-family:'Times New Roman';-inkscape-font-specification:'Times New Roman, ';fill:#1a1a1a"
       id="path2098" />
    <path
       d="m 933.43945,1447.2763 q 3.14453,-3.789 5.9961,-3.789 1.46484,0 2.51953,0.7421 1.05469,0.7227 1.67969,2.4024 0.42968,1.1719 0.42968,3.5937 v 7.6368 q 0,1.6992 0.27344,2.3046 0.21484,0.4883 0.68359,0.7618 0.48829,0.2734 1.77735,0.2734 v 0.7031 h -8.84766 v -0.7031 h 0.3711 q 1.25,0 1.73828,-0.3711 0.50781,-0.3906 0.70312,-1.1328 0.0781,-0.293 0.0781,-1.8359 v -7.3243 q 0,-2.4414 -0.64453,-3.5351 -0.625,-1.1133 -2.12891,-1.1133 -2.32422,0 -4.62891,2.5391 v 9.4336 q 0,1.8164 0.21485,2.246 0.27343,0.5665 0.74218,0.8399 0.48829,0.2539 1.95313,0.2539 v 0.7031 h -8.84766 v -0.7031 h 0.39063 q 1.36719,0 1.83594,-0.6836 0.48828,-0.7031 0.48828,-2.6562 v -6.6407 q 0,-3.2226 -0.15625,-3.9258 -0.13672,-0.7031 -0.44922,-0.957 -0.29297,-0.2539 -0.80078,-0.2539 -0.54688,0 -1.3086,0.293 l -0.29297,-0.7031 5.39063,-2.1875 h 0.83984 z"
       style="font-style:normal;font-variant:normal;font-weight:normal;font-stretch:normal;font-family:'Times New Roman';-inkscape-font-specification:'Times New Roman, ';fill:#1a1a1a"
       id="path2100" />
    <path
       d="m 959.78711,1443.4873 v 6.0937 h -0.64453 q -0.74219,-2.8711 -1.91406,-3.9062 -1.15235,-1.0352 -2.94922,-1.0352 -1.36719,0 -2.20703,0.7227 -0.83985,0.7226 -0.83985,1.6015 0,1.0938 0.625,1.875 0.60547,0.8008 2.46094,1.6992 l 2.85156,1.3868 q 3.96485,1.9335 3.96485,5.0976 0,2.4414 -1.85547,3.9453 -1.83594,1.4844 -4.1211,1.4844 -1.64062,0 -3.75,-0.5859 -0.64453,-0.1954 -1.05468,-0.1954 -0.44922,0 -0.70313,0.5079 h -0.64453 v -6.3868 h 0.64453 q 0.54688,2.7344 2.08984,4.1211 1.54297,1.3868 3.45704,1.3868 1.34765,0 2.1875,-0.7813 0.85937,-0.8008 0.85937,-1.9141 0,-1.3476 -0.95703,-2.2656 -0.9375,-0.918 -3.76953,-2.3242 -2.83203,-1.4063 -3.71094,-2.5391 -0.87891,-1.1132 -0.87891,-2.8125 0,-2.207 1.50391,-3.6914 1.52344,-1.4843 3.92578,-1.4843 1.05469,0 2.5586,0.4492 0.99609,0.2929 1.32812,0.2929 0.3125,0 0.48828,-0.1367 0.17578,-0.1367 0.41016,-0.6054 z"
       style="font-style:normal;font-variant:normal;font-weight:normal;font-stretch:normal;font-family:'Times New Roman';-inkscape-font-specification:'Times New Roman, ';fill:#1a1a1a"
       id="path2102" />
  </g>
</svg>
